#!OML:ASF H:\Pregnant\Project 1\Capture day 1\Session 1\femalepreg.ASF
:FULLY-SPECIFIED
:DEGREES
289
root 6.73147 15.9774 13.0668 27.5952 -4.8816 -3.33682
lowerback -10.9688 0.385107 -3.31127
upperback -4.13895 0.850098 0.0220722
thorax 1.78179 0.445763 1.99079
lowerneck -25.6272 -10.5791 -5.77414
upperneck 10.7238 -15.2952 15.5558
head 9.29481 -5.85395 3.79926
rclavicle 3.77691e-015 -1.59028e-015
rhumerus -28.6148 33.6182 -97.3962
rradius 67.1612
rwrist -33.5741
rhand -8.53744 -16.0978
rfingers 7.12502
rthumb 17.3917 -45.3397
lclavicle 3.77691e-015 -1.59028e-015
lhumerus -32.8974 -23.0308 92.3184
lradius 67.8474
lwrist 65.9557
lhand -20.8198 2.81345
lfingers 7.12502
lthumb 5.54829 32.7208
rfemur -35.8846 10.7815 -3.70993
rtibia 24.962
rfoot -10.985 -45.096
rtoes 30.6738
lfemur -29.0934 -3.64828 -18.643
ltibia 14.1061
lfoot -5.41155 12.6486
ltoes -13.0753
290
root 6.77085 15.9797 13.0664 27.7476 -5.38613 -3.51712
lowerback -10.8843 0.448279 -3.35723
upperback -4.14901 0.933854 0.0622753
thorax 1.71863 0.489252 2.06708
lowerneck -25.5859 -10.6619 -5.81997
upperneck 10.3936 -15.3656 15.6696
head 9.19712 -5.89806 3.83258
rclavicle 2.18663e-015 2.38542e-015
rhumerus -28.4015 33.9236 -97.539
rradius 66.9762
rwrist -33.2548
rhand -8.44135 -15.7448
rfingers 7.12502
rthumb 17.4841 -44.9785
lclavicle 2.18663e-015 2.38542e-015
lhumerus -33.0763 -22.718 92.0816
lradius 67.8699
lwrist 66.0863
lhand -20.47 2.48608
lfingers 7.12502
lthumb 5.88605 32.3843
rfemur -36.6838 10.4401 -3.48665
rtibia 25.2895
rfoot -8.69624 -45.381
rtoes 30.4396
lfemur -29.2571 -3.56343 -18.6699
ltibia 14.3057
lfoot -5.52415 13.068
ltoes -12.7848
291
root 6.80843 15.981 13.0654 27.8914 -5.87878 -3.69021
lowerback -10.7952 0.507945 -3.40824
upperback -4.15418 1.01349 0.0978308
thorax 1.65802 0.53065 2.14063
lowerneck -25.5477 -10.7483 -5.83744
upperneck 10.0716 -15.4471 15.7617
head 9.09988 -5.94794 3.85213
rclavicle 4.37326e-015 -1.51076e-014
rhumerus -28.1661 34.2155 -97.6486
rradius 66.7941
rwrist -32.9191
rhand -8.31638 -15.4815
rfingers 7.12502
rthumb 17.6044 -44.7045
lclavicle 4.37326e-015 -1.51076e-014
lhumerus -33.2245 -22.4221 91.832
lradius 67.8832
lwrist 66.1886
lhand -20.047 2.22005
lfingers 7.12502
lthumb 6.29448 32.1065
rfemur -37.4884 10.1213 -3.23312
rtibia 25.6423
rfoot -6.49128 -45.5653
rtoes 30.3968
lfemur -29.4457 -3.48068 -18.6973
ltibia 14.56
lfoot -5.66264 13.4826
ltoes -12.5045
292
root 6.84431 15.981 13.0646 28.0273 -6.36504 -3.85717
lowerback -10.6997 0.562175 -3.4711
upperback -4.16206 1.08679 0.13179
thorax 1.59099 0.569173 2.21806
lowerneck -25.4719 -10.8375 -5.83012
upperneck 9.73447 -15.5366 15.8414
head 8.98933 -6.00501 3.86336
rclavicle 1.66979e-014 -1.03368e-014
rhumerus -27.9356 34.5023 -97.7357
rradius 66.6202
rwrist -32.5553
rhand -8.12944 -15.3176
rfingers 7.12502
rthumb 17.7843 -44.5244
lclavicle 1.66979e-014 -1.03368e-014
lhumerus -33.3616 -22.1412 91.5792
lradius 67.8877
lwrist 66.2532
lhand -19.6163 1.94431
lfingers 7.12502
lthumb 6.71026 31.818
rfemur -38.2973 9.80693 -2.93831
rtibia 26.0248
rfoot -4.39335 -45.5935
rtoes 30.5404
lfemur -29.6512 -3.39841 -18.7258
ltibia 14.8614
lfoot -5.8286 13.8934
ltoes -12.2142
293
root 6.87853 15.9798 13.0637 28.1594 -6.84237 -4.01896
lowerback -10.6024 0.60875 -3.54474
upperback -4.17226 1.15075 0.167146
thorax 1.52054 0.603287 2.30162
lowerneck -25.3547 -10.9302 -5.82272
upperneck 9.37816 -15.6319 15.9348
head 8.86813 -6.067 3.87949
rclavicle 4.17448e-015 -8.74653e-015
rhumerus -27.7123 34.7892 -97.7969
rradius 66.4547
rwrist -32.1502
rhand -7.87774 -15.2395
rfingers 7.12502
rthumb 18.0265 -44.4242
lclavicle 4.17448e-015 -8.74653e-015
lhumerus -33.4836 -21.8708 91.3249
lradius 67.8826
lwrist 66.2697
lhand -19.2057 1.71923
lfingers 7.12502
lthumb 7.10662 31.5799
rfemur -39.1126 9.4768 -2.59012
rtibia 26.4404
rfoot -2.43003 -45.3935
rtoes 30.7967
lfemur -29.8796 -3.31556 -18.755
ltibia 15.2106
lfoot -6.0209 14.2992
ltoes -11.9184
294
root 6.9109 15.9777 13.0632 28.2809 -7.30525 -4.178
lowerback -10.5009 0.647259 -3.6285
upperback -4.1842 1.20458 0.206045
thorax 1.44609 0.632635 2.3931
lowerneck -25.1914 -11.0286 -5.82287
upperneck 9.00844 -15.7349 16.0453
head 8.73883 -6.13484 3.90257
rclavicle 0 5.56597e-015
rhumerus -27.5038 35.0764 -97.8324
rradius 66.2945
rwrist -31.6975
rhand -7.60263 -15.1724
rfingers 7.12502
rthumb 18.2912 -44.3324
lclavicle 0 5.56597e-015
lhumerus -33.5999 -21.6158 91.0733
lradius 67.8726
lwrist 66.2369
lhand -18.8525 1.5738
lfingers 7.12502
lthumb 7.44755 31.4227
rfemur -39.9178 9.12115 -2.1715
rtibia 26.887
rfoot -0.612726 -44.872
rtoes 30.976
lfemur -30.1239 -3.2358 -18.7796
ltibia 15.6116
lfoot -6.24271 14.7007
ltoes -11.6265
